<svg width="55" height="55" viewBox="0 0 55 55" fill="none" xmlns="http://www.w3.org/2000/svg">
<g clip-path="url(#clip0_2476_18)">
<path d="M54.8955 27.5396C54.8955 28.3989 54.9631 29.2643 54.877 30.1113C54.7663 31.2284 54.5449 32.3393 54.3604 33.4503C54.2743 33.9474 54.1759 34.4384 54.0344 34.9172C53.8253 35.623 53.5732 36.3104 53.3333 37.004C52.6507 38.9742 51.6974 40.8217 50.5597 42.5525C49.139 44.7068 47.4477 46.6463 45.4674 48.3342C43.5301 49.9852 41.4207 51.3601 39.1082 52.4342C36.4022 53.6924 33.5855 54.5333 30.6089 54.7911C29.4219 54.8954 28.2226 55.0059 27.0357 54.9936C24.5757 54.9752 22.1402 54.6376 19.7909 53.9257C14.385 52.2869 9.84011 49.3285 6.24232 44.9523C4.42191 42.7428 2.98279 40.3184 1.92498 37.673C1.02092 35.3959 0.381316 33.039 0.196814 30.584C0.110713 29.3932 -0.0245883 28.2025 1.19784e-05 27.0179C0.0430624 24.5813 0.356716 22.1692 1.06397 19.8307C2.68759 14.4663 5.61502 9.94283 9.95696 6.34614C11.7589 4.85467 13.7146 3.61486 15.8364 2.62055C18.2411 1.49121 20.7442 0.71172 23.3702 0.343457C25.6704 0.0181586 27.9828 -0.17211 30.2952 0.208428C31.9004 0.472349 33.5424 0.65648 35.0984 1.10453C36.722 1.57714 38.3149 2.22773 39.8401 2.96426C43.2841 4.62144 46.1808 7.00287 48.6408 9.92442C49.9693 11.4957 51.1009 13.202 52.0234 15.031C52.7675 16.504 53.4502 18.0078 53.8253 19.6343C53.9975 20.3708 54.2682 21.0828 54.4527 21.8132C54.5695 22.2735 54.6495 22.7522 54.6925 23.2248C54.8094 24.6549 54.8955 26.0911 54.9939 27.5212C54.957 27.5212 54.9262 27.5212 54.8893 27.5212L54.8955 27.5396ZM4.48956 25.5142C4.46496 25.281 4.42806 25.1091 4.42806 24.9434C4.42806 24.0534 4.40961 23.1696 4.42806 22.2796C4.44036 21.7886 4.1513 21.7518 3.77615 21.7579C3.14269 21.7641 3.05044 21.807 3.04429 22.2858C3.03814 25.5449 3.04429 28.7979 3.03814 32.057C3.03814 32.3823 3.17959 32.5051 3.4871 32.4866C3.60395 32.4805 3.7208 32.4866 3.83765 32.4866C4.40346 32.4805 4.42191 32.4621 4.42191 31.8913C4.42191 30.5533 4.43421 29.2152 4.43421 27.8772C4.43421 26.9627 5.37516 25.8579 6.59288 25.9316C7.67529 25.9991 8.34564 26.6865 8.35794 27.8895C8.37024 29.1109 8.35794 30.3323 8.36409 31.5537C8.3764 32.591 8.19189 32.4744 9.3358 32.4928C9.68636 32.4928 9.79091 32.3393 9.79091 32.014C9.78476 30.7497 9.79091 29.4853 9.78476 28.2209C9.78476 27.8036 9.74786 27.3801 9.68636 26.9627C9.3973 25.0907 7.49079 24.2376 5.83027 24.7961C5.38746 24.9434 4.99386 25.238 4.48956 25.5081V25.5142ZM36.107 28.6751C36.0025 31.0136 37.9151 32.683 40.0062 32.6708C42.3616 32.6585 44.0529 30.9952 44.059 28.6137C44.059 26.398 42.3432 24.6795 40.0677 24.6365C38.1119 24.5997 35.9533 26.3428 36.107 28.6751ZM10.9717 28.6628C10.9902 31.0688 12.7614 32.6646 14.9262 32.6769C17.1771 32.6892 18.9853 30.9154 18.9668 28.6322C18.9484 26.4164 17.1956 24.6488 14.9754 24.6426C12.7491 24.6426 10.9717 26.4164 10.9717 28.6567V28.6628ZM46.8081 25.6799C46.7282 25.3485 46.7282 24.9618 46.599 24.9127C46.2915 24.7961 45.9225 24.8084 45.5843 24.8452C45.4982 24.8575 45.3875 25.1705 45.3875 25.3423C45.3752 27.4476 45.3752 29.559 45.3813 31.6642C45.3813 32.5848 45.3075 32.456 46.1993 32.4989C46.6298 32.5173 46.7097 32.3393 46.7097 31.9649C46.6913 30.7435 46.6913 29.5221 46.7097 28.3007C46.7159 27.9693 46.8266 27.6317 46.9065 27.3064C47.1587 26.306 48.1242 25.8334 49.1513 25.9561C49.9139 26.0482 50.615 26.7724 50.6273 27.5396C50.6458 28.8899 50.6458 30.2402 50.6642 31.5967C50.6765 32.5235 50.4859 32.4866 51.5929 32.5051C52.0172 32.5112 52.1464 32.3455 52.1402 31.9342C52.1218 30.6822 52.1464 29.4362 52.1279 28.1841C52.1218 27.7115 52.048 27.2389 51.9557 26.7724C51.7282 25.5694 50.4982 24.704 49.4035 24.6426C48.3948 24.5874 47.5461 24.882 46.8081 25.6799ZM33.3764 26.0052C33.2903 26.22 33.2718 26.3428 33.2042 26.4226C32.3678 27.4108 31.5191 28.3867 30.6765 29.3687C30.1107 30.0316 29.508 30.6699 28.9914 31.3696C28.813 31.6151 28.8253 32.014 28.8315 32.3455C28.8315 32.4007 29.262 32.4866 29.4896 32.4866C31.2977 32.4989 33.1058 32.4744 34.9139 32.5051C35.3936 32.5112 35.4244 32.278 35.4182 31.9158C35.4059 31.2959 35.3875 31.253 34.8955 31.253C33.7146 31.253 32.5338 31.253 31.353 31.2468C31.23 31.2468 31.1132 31.1793 30.9963 31.1425C31.0455 31.032 31.0763 30.9031 31.1501 30.8172C32.3247 29.4301 33.5055 28.0491 34.6864 26.6681C34.8955 26.4226 35.1599 26.2016 35.2768 25.9193C35.3936 25.6308 35.3936 25.2748 35.3444 24.9618C35.3321 24.882 34.9447 24.8206 34.7294 24.8206C33.0381 24.8084 31.3469 24.8145 29.6556 24.8206C29.0037 24.8206 28.9361 24.882 28.9422 25.459C28.9422 25.9684 29.0037 26.0175 29.631 26.0175C30.5043 26.0175 31.3838 26.0175 32.2571 26.0175C32.6015 26.0175 32.9459 26.0175 33.3948 26.0175L33.3764 26.0052ZM21.6113 26.0605C21.5867 25.8088 21.5683 25.6922 21.5683 25.5817C21.5498 24.8084 21.476 24.7409 20.7011 24.8022C20.3875 24.8268 20.2276 24.9557 20.2276 25.2932C20.2337 27.5458 20.2276 29.8045 20.2399 32.057C20.2399 32.1798 20.2952 32.3946 20.3444 32.4007C20.6827 32.4498 21.0394 32.4989 21.3715 32.4437C21.4699 32.4253 21.5498 32.0631 21.5621 31.8545C21.6359 30.6699 21.6482 29.4792 21.7651 28.2946C21.8635 27.3248 22.8844 26.3551 23.813 26.22C24.3666 26.1382 24.6392 25.8211 24.631 25.2687C24.631 25.2135 24.631 25.1521 24.631 25.0968C24.6556 24.747 24.4834 24.6426 24.1513 24.6672C23.321 24.7347 22.6691 25.1337 22.0849 25.6861C21.968 25.7965 21.8266 25.8886 21.6113 26.0605ZM25.9471 28.7058C25.9471 29.6817 25.9471 30.6515 25.9471 31.6274C25.9471 32.6094 25.8549 32.4866 26.8081 32.4928C27.3924 32.4928 27.417 32.4682 27.417 31.8667C27.417 29.7431 27.417 27.6194 27.417 25.4958C27.417 24.8575 27.3616 24.8022 26.7159 24.8022C26.6298 24.8022 26.5375 24.8084 26.4514 24.8022C26.0701 24.7593 25.9348 24.925 25.941 25.3055C25.9594 26.441 25.941 27.5765 25.941 28.7058H25.9471ZM26.6851 21.985C26.1849 21.985 25.9348 22.2326 25.9348 22.7277C25.9348 23.2228 26.1685 23.4744 26.6359 23.4826C27.4108 23.4826 27.46 23.4397 27.46 22.7706C27.46 22.0034 27.4416 21.9789 26.6851 21.9789V21.985Z" fill="white"/>
<path d="M42.5585 28.6631C42.6631 30.1607 41.7836 31.0139 40.5044 31.3576C39.625 31.5969 38.2842 30.9525 37.8168 30.0318C37.2941 28.9946 37.3433 27.2883 38.4933 26.4351C39.256 25.8705 40.0862 25.7416 40.9226 26.0853C41.9005 26.4781 42.5339 27.2146 42.5585 28.3378C42.5585 28.4544 42.5585 28.5711 42.5585 28.6631Z" fill="white"/>
<path d="M17.534 28.6693C17.534 30.0565 16.6607 31.1244 15.3077 31.3822C14.2807 31.5786 12.983 30.793 12.6078 29.7373C12.3188 28.9087 12.3188 28.0801 12.7247 27.2822C13.5673 25.6128 15.8366 25.4286 16.9621 26.9324C17.3987 27.5155 17.534 27.9328 17.534 28.6693Z" fill="white"/>
</g>
<defs>
<clipPath id="clip0_2476_18">
<rect width="55" height="55" fill="white"/>
</clipPath>
</defs>
</svg>
